<?xml version="1.0" ?><svg style="enable-background:new 0 0 48 48;" version="1.1" viewBox="0 0 48 48" xml:space="preserve" xmlns="http://www.w3.org/2000/svg" xmlns:xlink="http://www.w3.org/1999/xlink"><style type="text/css">
	.st0{display:none;}
	.st1{fill:none;stroke:#303030;stroke-width:0.7;stroke-linecap:round;stroke-linejoin:round;stroke-miterlimit:10;}
	.st2{fill:#303030;}
</style><g class="st0" id="Padding__x26__Artboard"/><g id="Icons"><path class="st1" d="M37.35601,11.33775v16.2109c0,0.55525-0.45429,1.00954-1.00954,1.00954H23.93603l-3.83002,2.98999   l0.88-2.98999h-7.45048c-0.55755,0-1.00954-0.45199-1.00954-1.00954V11.3477c0-0.56305,0.45644-1.01949,1.01949-1.01949h22.80099   C36.90403,10.32821,37.35601,10.7802,37.35601,11.33775z"/><g><path class="st1" d="M25.81601,18.29319v-3.22c0-0.48-0.39-0.87-0.88-0.87c-0.48,0-0.87,0.39-0.87,0.87v3.22"/><path class="st1" d="M25.81601,20.04319v3.22c0,0.49-0.39,0.88-0.88,0.88c-0.48,0-0.87-0.39-0.87-0.88v-3.22"/></g><g><path class="st1" d="M24.06601,20.04319h-3.22c-0.49,0-0.88-0.39-0.88-0.87c0-0.49,0.39-0.88,0.88-0.88h3.22"/><path class="st1" d="M25.81601,20.04319h3.22c0.48,0,0.88-0.39,0.88-0.87c0-0.49-0.4-0.88-0.88-0.88h-3.22"/></g><path class="st1" d="M14.7492,14.93217c0,0.1523,0,3.95993,0,3.95993"/><line class="st1" x1="14.7492" x2="14.7492" y1="20.46592" y2="21.37975"/></g></svg>